# xmcd CD database file
#
# Track frame offsets:
#	150
#	18297
#	31800
#	49518
#	66565
#	82355
#	100505
#	115644
#	132078
#	148219
#	162684
#	186858
#	202820
#	220747
#	235469
#	250633
#	266175
#	285279
#	303346
#	324099
#
# Disc length: 4563 seconds
#
# Revision: 0
# Processed by: cddbd v1.5.1PL0 Copyright (c) Steve Scherf et al.
# Submitted via: CDex 1.51
#
DISCID=1911d114
DTITLE=Xin Yao - Xin yao zhen chang pin
DYEAR=2005
DGENRE=Country
TTITLE0=wo men zhe yi ban
TTITLE1=pai pai zhuo
TTITLE2=ah ben ah ben
TTITLE3=xin yi na you jiu yi hao
TTITLE4=yao yao ming yao
TTITLE5=chu xie
TTITLE6=xin yu ji xing
TTITLE7=yeu de xuan huan
TTITLE8=you jin gu shi
TTITLE9=liu xin ge ju
TTITLE10=xiang ai qing gao bie
TTITLE11=sui xiang piao zhui de ji jie
TTITLE12=yue de tong xing
TTITLE13=na yi nian
TTITLE14=jin yue shi ni
TTITLE15=tan yi zi liang liang de ge
TTITLE16=wo men de ge zai na li
TTITLE17=sui ye de lin yi zhang lian
TTITLE18=mo di yong heng
TTITLE19=ni you zu lian yi xi
EXTD=YEAR: 2005
EXTT0=
EXTT1=
EXTT2=
EXTT3=
EXTT4=
EXTT5=
EXTT6=
EXTT7=
EXTT8=
EXTT9=
EXTT10=
EXTT11=
EXTT12=
EXTT13=
EXTT14=
EXTT15=
EXTT16=
EXTT17=
EXTT18=
EXTT19=
PLAYORDER=
